# xmcd
#
# Track frame offsets: 
#        150
#        20379
#        45081
#        67971
#        90683
#        117915
#        140857
#        160258
#        179994
#        202814
#        228772
#        254929
#        277799
#        297046
#        318451
#        336060
#
# Disc length: 4731 seconds
#
# Revision: 0
# Processed by: cddbd v1.5PL3 Copyright (c) Steve Scherf et al.
# Submitted via: ExactAudioCopy v0.95a4
#
DISCID=e4127910
DTITLE=Kenny G - Gold 2000
DYEAR=2000
DGENRE=
TTITLE0=Ave Maria
TTITLE1=Silhouette
TTITLE2=Songbird
TTITLE3=Even if my heart would break(feat.Aaron Neville)
TTITLE4=The Moment
TTITLE5=Japan
TTITLE6=Against doctor's orders
TTITLE7=Waiting for you
TTITLE8=That sombody was you(feat.Tony Braxton)
TTITLE9=Pastel
TTITLE10=Let go
TTITLE11=End of the night
TTITLE12=I've been missing you
TTITLE13=Don't make me wait for love (feat.Michael Bolton)
TTITLE14=G-Bop
TTITLE15=Going home
EXTD=
EXTT0=
EXTT1=
EXTT2=
EXTT3=
EXTT4=
EXTT5=
EXTT6=
EXTT7=
EXTT8=
EXTT9=
EXTT10=
EXTT11=
EXTT12=
EXTT13=
EXTT14=
EXTT15=
PLAYORDER=
